<svg width="93" height="93" viewBox="0 0 93 93" fill="none" xmlns="http://www.w3.org/2000/svg">
<mask id="mask0_45_100" style="mask-type:alpha" maskUnits="userSpaceOnUse" x="0" y="0" width="93" height="93">
<rect width="93" height="93" fill="#D9D9D9"/>
</mask>
<g mask="url(#mask0_45_100)">
<path d="M23.2502 42.4313L19.3752 44.5625C18.4711 45.0792 17.5023 45.2083 16.469 44.95C15.4357 44.6917 14.6607 44.1104 14.144 43.2063L6.39399 29.6438C5.87732 28.7396 5.74815 27.7708 6.00649 26.7375C6.26482 25.7042 6.84607 24.9292 7.75024 24.4125L30.0315 11.625H36.8127C37.394 11.625 37.8622 11.8026 38.2174 12.1578C38.5726 12.513 38.7502 12.9812 38.7502 13.5625V15.5C38.7502 17.6312 39.5091 19.4557 41.0268 20.9734C42.5445 22.4911 44.369 23.25 46.5002 23.25C48.6315 23.25 50.456 22.4911 51.9737 20.9734C53.4914 19.4557 54.2502 17.6312 54.2502 15.5V13.5625C54.2502 12.9812 54.4278 12.513 54.7831 12.1578C55.1383 11.8026 55.6065 11.625 56.1877 11.625H62.969L85.2502 24.4125C86.1544 24.9292 86.7356 25.7042 86.994 26.7375C87.2523 27.7708 87.1232 28.7396 86.6065 29.6438L78.8565 43.2063C78.3398 44.1104 77.581 44.6755 76.5799 44.9016C75.5789 45.1276 74.594 44.9823 73.6252 44.4656L69.7502 42.5281V77.5C69.7502 78.5979 69.3789 79.5182 68.6362 80.2609C67.8935 81.0036 66.9731 81.375 65.8752 81.375H27.1252C26.0273 81.375 25.107 81.0036 24.3643 80.2609C23.6216 79.5182 23.2502 78.5979 23.2502 77.5V42.4313ZM31.0002 29.45V73.625H62.0002V29.45L74.0127 36.0375L78.0815 29.2563L61.419 19.5687C60.4502 22.8625 58.6258 25.5911 55.9455 27.7547C53.2653 29.9182 50.1169 31 46.5002 31C42.8836 31 39.7351 29.9182 37.0549 27.7547C34.3747 25.5911 32.5502 22.8625 31.5815 19.5687L14.919 29.2563L18.9877 36.0375L31.0002 29.45Z" fill="white"/>
</g>
</svg>
